<?xml version="1.0" encoding="UTF-8"?>
<svg version="1.1" viewBox="0 0 48 48" xml:space="preserve" xmlns="http://www.w3.org/2000/svg"><defs><linearGradient id="a" x1="27.249" x2="95.065" y1="84.893" y2="84.893" gradientUnits="userSpaceOnUse"><stop stop-color="#f6eb4d" offset="0"/><stop stop-color="#bd42e5" offset="1"/></linearGradient></defs><g transform="translate(-154.6 -301.73)"><g transform="matrix(.88415 0 0 .88415 -30.774 37.407)" display="none" stroke-width="1.131"><path transform="matrix(.6807 0 0 .6807 195.18 268.31)" d="m92.035 106.22-27.849 16.078a6.0591 6.0591 2.522e-7 0 1-6.0591 0l-27.849-16.078a6.0591 6.0591 60 0 1-3.0296-5.2474v-32.157a6.0591 6.0591 120 0 1 3.0296-5.2474l27.849-16.078a6.0591 6.0591 2.522e-7 0 1 6.0591 0l27.849 16.078a6.0591 6.0591 60 0 1 3.0296 5.2474v32.157a6.0591 6.0591 120 0 1-3.0296 5.2474z" display="inline" fill="url(#a)"/><path d="m236.8 326.42-20.174-11.968m20.174 11.968 19.967-11.848m-19.967 35.3v-23.451m19.416 12.24-18.246 10.536a2.3394 2.3398 0 0 1-2.3394 0l-18.246-10.536a2.3394 2.3398 0 0 1-1.1697-2.0263v-21.072a2.3394 2.3398 0 0 1 1.1697-2.0263l18.246-10.536a2.3394 2.3398 0 0 1 2.3394 0l18.246 10.536a2.3394 2.3398 0 0 1 1.1697 2.0263v21.072a2.3394 2.3398 0 0 1-1.1697 2.0263z" display="inline" fill="none" stroke="#17032b" stroke-linejoin="round" stroke-miterlimit="0" stroke-width="2.9925"/><path d="m238.26 303.19c-9.8372 9.1808-17.476 20.685-22.042 33.639v1.659l0.18556 0.10162c4.4762-13.529 12.314-25.526 22.523-35.004zm3.3754 2.0036c-10.296 9.3514-18.162 21.33-22.541 34.876l0.93001 0.5125c4.3416-13.555 12.219-25.528 22.548-34.832zm-11.032 0.71131-1.6236 0.93663c-5.0474 5.8071-9.3515 12.28-12.762 19.267v1.374c3.7223-7.9092 8.588-15.172 14.385-21.578zm14.005 1.0559c-10.401 9.2016-18.306 21.158-22.57 34.728v2e-3l1.4668 0.8063c4.1998-13.588 12.124-25.538 22.581-34.66zm3.4108 2.0257c-10.533 9.0153-18.49 20.955-22.61 34.558l2.008 1.1045c4.0241-13.634 12.01-25.563 22.63-34.457zm3.1391 1.8644c-10.668 8.828-18.68 20.753-22.656 34.395l2.2797 1.2547c3.8563-13.682 11.914-25.598 22.691-34.273zm3.3025 1.9616c-10.827 8.6108-18.91 20.526-22.72 34.216l2.5603 1.4072c3.6601-13.74 11.797-25.647 22.758-34.066-4e-3 -0.0111-7e-3 -0.0177-7e-3 -0.0177zm2.8961 2.4101c-10.753 8.3414-18.728 20.095-22.294 33.633l1.3475 0.74224s1.2166 0.27419 1.8424 0.0552c2.9413-11.162 9.1396-20.935 17.385-28.512v-0.0464c0.42469-0.41023 0.86359-0.81779 1.3011-1.226 0.20636-0.17834 0.37437-0.3966 0.58319-0.57214 0.68644-0.9021 0.20105-2.9137-0.16568-4.0735zm-1.7186 6.415a59.023 59.022 0 0 0-15.726 24.291l14.719-8.5092a2.0145 2.0172 0 0 0 0.21869-0.1458 2.0145 2.0172 0 0 0 2e-3 -2e-3 2.0145 2.0172 0 0 0 0.634-0.82618 2.0145 2.0172 0 0 0 0-2e-3 2.0145 2.0172 0 0 0 0.0839-0.24962 2.0145 2.0172 0 0 0 0.0685-0.52134z" display="inline" fill="#17032b" stop-color="#000000" stroke-linecap="round" stroke-linejoin="round" stroke-miterlimit="0" stroke-width="1.1312"/></g><g transform="matrix(.88415 0 0 .88415 -30.774 37.407)" stroke-width="1.131"><path transform="matrix(.6807 0 0 .6807 195.18 268.31)" d="m92.035 106.22-27.849 16.078a6.0591 6.0591 2.522e-7 0 1-6.0591 0l-27.849-16.078a6.0591 6.0591 60 0 1-3.0296-5.2474v-32.157a6.0591 6.0591 120 0 1 3.0296-5.2474l27.849-16.078a6.0591 6.0591 2.522e-7 0 1 6.0591 0l27.849 16.078a6.0591 6.0591 60 0 1 3.0296 5.2474v32.157a6.0591 6.0591 120 0 1-3.0296 5.2474z" fill="url(#a)"/><path d="m236.8 326.42-20.174-11.968m20.174 11.968 19.967-11.848m-19.967 35.3v-23.451m19.416 12.24-18.246 10.536a2.3394 2.3398 0 0 1-2.3394 0l-18.246-10.536a2.3394 2.3398 0 0 1-1.1697-2.0263v-21.072a2.3394 2.3398 0 0 1 1.1697-2.0263l18.246-10.536a2.3394 2.3398 0 0 1 2.3394 0l18.246 10.536a2.3394 2.3398 0 0 1 1.1697 2.0263v21.072a2.3394 2.3398 0 0 1-1.1697 2.0263z" fill="none" stroke="#17032b" stroke-linejoin="round" stroke-miterlimit="0" stroke-width="2.9925"/><path d="m238.26 303.19c-9.8372 9.1808-17.476 20.685-22.042 33.639v1.659l0.18556 0.10162c4.4762-13.529 12.314-25.526 22.523-35.004zm3.3754 2.0036c-10.296 9.3514-18.162 21.33-22.541 34.876l0.93001 0.5125c4.3417-13.556 12.219-25.528 22.548-34.832zm-11.032 0.71131-1.6236 0.93663c-5.0474 5.8071-9.3515 12.28-12.762 19.267v1.374c3.7223-7.9092 8.588-15.172 14.385-21.578zm14.005 1.0559c-10.401 9.2016-18.306 21.158-22.57 34.728v2e-3l1.4668 0.8063c4.1998-13.588 12.124-25.538 22.581-34.66zm3.4108 2.0257c-10.534 9.0153-18.49 20.955-22.61 34.558l2.008 1.1045c4.0241-13.634 12.012-25.565 22.632-34.459zm3.1391 1.8644c-10.668 8.828-18.68 20.753-22.656 34.395l2.2797 1.2547c3.8564-13.683 11.913-25.6 22.691-34.275zm3.3047 1.9616c-10.827 8.6108-18.912 20.526-22.722 34.216l2.5603 1.4072c3.6601-13.74 11.797-25.647 22.758-34.066-4e-3 -0.0111-7e-3 -0.0177-7e-3 -0.0177l-0.82619-0.49041c0.01-0.27987 0.0213-0.6377-0.11266-0.81734-0.13823-0.18538-0.40668-0.0745-0.782 0.28497zm2.8938 2.4101c-10.753 8.3414-18.728 20.095-22.294 33.633l1.3475 0.74224s1.2166 0.27419 1.8424 0.0552c2.9998-11.384 9.3661-21.346 17.862-28.98 3.1e-4 -0.0117-3.1e-4 -0.0236 0-0.0353 0.27464-0.26185 0.55524-0.52325 0.83502-0.7842 0.20204-0.17451 0.36774-0.38707 0.57214-0.55889 0.68637-0.90213 0.20105-2.9115-0.16568-4.0712zm-1.257 5.9909a59.023 59.022 0 0 0-16.537 25.779c3.9918-2.8484 10.318-6.7904 15.536-9.8015 0.24421-0.14091 0.45225-0.48346 0.4639-0.76433 0.0803-1.938 0.36912-9.0615 0.53679-15.214z" fill="#17032b" stop-color="#000000" stroke-linecap="round" stroke-linejoin="round" stroke-miterlimit="0" stroke-width="1.1312"/></g><g transform="matrix(.88415 0 0 .88415 -30.774 37.407)" display="none" stroke-width="1.1312"><g fill="#17032b" stroke-linecap="round" stroke-linejoin="round" stroke-miterlimit="0"><path d="m238.26 303.19c-9.8372 9.1808-17.476 20.685-22.042 33.639v1.659l0.18556 0.10162c4.4762-13.529 12.314-25.526 22.523-35.004zm3.3754 2.0036c-10.296 9.3514-18.162 21.33-22.541 34.876l0.93001 0.5125c4.3416-13.555 12.219-25.528 22.548-34.832zm-11.032 0.71131-1.6236 0.93663c-5.0474 5.8071-9.3515 12.28-12.762 19.267v1.374c3.7223-7.9092 8.588-15.172 14.385-21.578zm14.005 1.0559c-10.401 9.2016-18.306 21.158-22.57 34.728v2e-3l1.4668 0.8063c4.1998-13.588 12.124-25.538 22.581-34.66zm3.4108 2.0257c-10.533 9.0153-18.49 20.955-22.61 34.558l2.008 1.1045c4.0241-13.634 12.01-25.563 22.63-34.457zm3.1391 1.8644c-10.668 8.828-18.68 20.753-22.656 34.395l2.2797 1.2547c3.8563-13.682 11.914-25.598 22.691-34.273zm3.3025 1.9616c-10.827 8.6108-18.91 20.526-22.72 34.216l2.5603 1.4072c3.6601-13.74 11.797-25.647 22.758-34.066-4e-3 -0.0111-7e-3 -0.0177-7e-3 -0.0177zm2.8961 2.4101c-10.753 8.3414-18.728 20.095-22.294 33.633l1.3475 0.74224s1.2166 0.27419 1.8424 0.0552c2.9413-11.162 9.1396-20.935 17.385-28.512v-0.0464c0.42469-0.41023 0.86359-0.81779 1.3011-1.226 0.20636-0.17834 0.37437-0.3966 0.58319-0.57214 0.68644-0.9021 0.20105-2.9137-0.16568-4.0735zm-1.7186 6.415a59.023 59.022 0 0 0-15.726 24.291l14.719-8.5092a2.0145 2.0172 0 0 0 0.21869-0.1458 2.0145 2.0172 0 0 0 2e-3 -2e-3 2.0145 2.0172 0 0 0 0.634-0.82618 2.0145 2.0172 0 0 0 0-2e-3 2.0145 2.0172 0 0 0 0.0839-0.24962 2.0145 2.0172 0 0 0 0.0685-0.52134z" display="inline" stop-color="#000000"/><path d="m238.26 303.19c-9.8372 9.1808-17.476 20.685-22.042 33.639v1.659l0.18556 0.10162c4.4762-13.529 12.314-25.526 22.523-35.004zm3.3754 2.0036c-10.296 9.3514-18.162 21.33-22.541 34.876l0.93001 0.5125c4.3417-13.556 12.219-25.528 22.548-34.832zm-11.032 0.71131-1.6236 0.93663c-5.0474 5.8071-9.3515 12.28-12.762 19.267v1.374c3.7223-7.9092 8.588-15.172 14.385-21.578zm14.005 1.0559c-10.401 9.2016-18.306 21.158-22.57 34.728v2e-3l1.4668 0.8063c4.1998-13.588 12.124-25.538 22.581-34.66zm3.4108 2.0257c-10.534 9.0153-18.49 20.955-22.61 34.558l2.008 1.1045c4.0241-13.634 12.012-25.565 22.632-34.459zm3.1391 1.8644c-10.668 8.828-18.68 20.753-22.656 34.395l2.2797 1.2547c3.8564-13.683 11.913-25.6 22.691-34.275zm3.3047 1.9616c-10.827 8.6108-18.912 20.526-22.722 34.216l2.5603 1.4072c3.6601-13.74 11.797-25.647 22.758-34.066-4e-3 -0.0111-7e-3 -0.0177-7e-3 -0.0177l-0.82619-0.49041c0.01-0.27987 0.0213-0.6377-0.11266-0.81734-0.13823-0.18538-0.40668-0.0745-0.782 0.28497zm2.8938 2.4101c-10.753 8.3414-18.728 20.095-22.294 33.633l1.3475 0.74224s1.2166 0.27419 1.8424 0.0552c2.9998-11.384 9.3661-21.346 17.862-28.98 3.1e-4 -0.0117-3.1e-4 -0.0236 0-0.0353 0.27464-0.26185 0.55524-0.52325 0.83502-0.7842 0.20204-0.17451 0.36774-0.38707 0.57214-0.55889 0.68637-0.90213 0.20105-2.9115-0.16568-4.0712zm-1.257 5.9909a59.023 59.022 0 0 0-16.537 25.779c3.9918-2.8484 10.318-6.7904 15.536-9.8015 0.24421-0.14091 0.45225-0.48346 0.4639-0.76433 0.0803-1.938 0.36912-9.0615 0.53679-15.214z" display="inline" stop-color="#000000"/></g><g transform="matrix(.96474 0 0 .96474 7.5968 10.669)" display="none" stroke-width="1.1724"><g fill="none"><path d="m254.93 339.57-15.084 9.4296c-0.61952 0.3873-1.678 1.033-2.3933 0.97168-0.67645-0.058-1.6949-0.64427-2.3356-0.99541l-17.337-9.5016c-0.64071-0.35114-1.7289-0.93867-2.0658-1.5762-0.29298-0.55439-0.27324-1.6943-0.27324-2.4249v-18.593c0-0.73063-0.0222-1.9669 0.36135-2.5776 0.33352-0.53098 1.3305-1.0839 1.9632-1.4493l16.099-9.2962c0.63271-0.36536 1.6943-1.0001 2.4143-0.9675 0.62422 0.0282 1.6101 0.58794 2.2526 0.93579l17.07 9.2413c0.64251 0.34785 1.7322 0.93269 2.0691 1.5702 0.29299 0.5544 0.25042 1.6938 0.22225 2.4239l-0.73114 18.95c-0.0253 0.65539-0.0419 1.7517-0.35078 2.3238-0.0138 0.0255-0.028 0.0508-0.0427 0.0758-0.32842 0.55926-1.2821 1.1113-1.8383 1.459z" display="inline" style="mix-blend-mode:normal"/><path transform="matrix(1.0365 0 0 1.0365 -7.8745 -11.059)" d="m238.6 349.34c-0.19984 0.70733-2.1898 0.25932-2.1898 0.25932l-20.192-11.109v-24.278l20.585-11.887 20.248 12.028s1.5856 3.9357 0.33686 5.0894c-8.5825 7.9296-14.882 16.067-18.789 29.896z" display="inline"/><path transform="translate(-1.1391e-6)" d="m257.71 314.47c0.0136 6.05-0.56289 20.284-0.68379 23.199-0.0121 0.29113-0.22757 0.64498-0.48071 0.79104-6.753 3.8965-15.297 9.2981-18.686 12.119-0.22457 0.18689-0.7047 0.3894-0.68573 0.21933 0.37119-3.3274 18.825-39.511 20.423-37.367 0.17215 0.23089 0.11233 0.74664 0.11299 1.0389z" display="inline"/></g><path transform="matrix(.5419 0 0 .54262 205.59 281.4)" d="m59.036 38.543-39.377 22.707v46.376l38.625 21.221s3.8052 0.85746 4.1875-0.49372c0.59956-2.1193 1.2304-4.172 1.8888-6.1567l28.776-16.613a3.8534 3.8534 0 0 0 0.41832-0.27851 3.8534 3.8534 0 0 0 0.0042-4e-3 3.8534 3.8534 0 0 0 1.2127-1.5782 3.8534 3.8534 0 0 0 0-4e-3 3.8534 3.8534 0 0 0 0.16057-0.47684 3.8534 3.8534 0 0 0 0.13099-0.99587v-27.847c1.0942-1.0556 2.2147-2.1081 3.3508-3.1564 2.3887-2.204-0.6465-9.7225-0.6465-9.7225z" display="inline" fill="#17032b" style="mix-blend-mode:normal"/><path transform="translate(-1.1391e-6)" d="m237.59 302.32-21.339 12.321v25.165l20.931 11.515s2.062 0.46528 2.2692-0.2679c0.20989-0.74289 0.42712-1.4702 0.6503-2.1822 4.1108-2.9684 10.889-7.1994 16.452-10.409 0.25314-0.14606 0.46879-0.50113 0.48086-0.79226 0.0859-2.072 0.40167-9.8619 0.57245-16.367 0.43422-0.414 0.87507-0.82656 1.3212-1.2388 1.2944-1.196-0.35034-5.2756-0.35034-5.2756l-0.85638-0.50833c0.01-0.2901 0.0221-0.66102-0.11678-0.84722-0.14328-0.19216-0.42155-0.0772-0.81059 0.29538z" display="inline" fill="#17032b"/></g><path d="m295.81 276.37c-48.882 0-88.514 39.632-88.514 88.514s39.632 88.516 88.514 88.516 88.514-39.634 88.514-88.516-39.632-88.514-88.514-88.514zm0 0.59644c48.559 0 87.916 39.359 87.916 87.917s-39.357 87.917-87.916 87.917-87.918-39.359-87.918-87.917 39.359-87.917 87.918-87.917zm0 3.5499c-46.591 1e-5 -84.368 37.777-84.368 84.367s37.777 84.37 84.368 84.37c46.591 1e-5 84.368-37.779 84.368-84.37 1e-5 -46.59-37.777-84.367-84.368-84.367zm0 0.74886c46.187 0 83.619 37.432 83.619 83.619-1e-5 46.186-37.433 83.621-83.619 83.621s-83.621-37.434-83.621-83.621c0-46.186 37.435-83.619 83.621-83.619zm0 3.0109c-44.513 0-80.608 36.095-80.608 80.608 0 44.512 36.096 80.61 80.608 80.61 44.513 0 80.608-36.098 80.608-80.61s-36.096-80.608-80.608-80.608zm0 1.0471c43.947 0 79.561 35.614 79.561 79.561 0 43.946-35.615 79.561-79.561 79.561s-79.563-35.614-79.563-79.561c0-43.946 35.617-79.561 79.563-79.561zm0 2.251c-42.688 0-77.312 34.622-77.312 77.31s34.624 77.31 77.312 77.31 77.31-34.622 77.31-77.31c1e-5 -42.688-34.622-77.31-77.31-77.31zm0 1.6457c41.798 0 75.664 33.866 75.664 75.664s-33.866 75.666-75.664 75.666c-41.798-1e-5 -75.667-33.868-75.667-75.666s33.868-75.664 75.667-75.664zm0 2.1207c-40.604 0-73.546 32.939-73.546 73.543 1e-5 40.604 32.942 73.545 73.546 73.545 40.604 1e-5 73.544-32.941 73.544-73.545-1e-5 -40.604-32.939-73.543-73.544-73.543zm0 2.2444c39.391 0 71.299 31.908 71.299 71.299s-31.908 71.301-71.299 71.301-71.302-31.91-71.302-71.301 31.91-71.299 71.302-71.299zm0 1.2017c-38.699 0-70.098 31.399-70.098 70.097s31.399 70.097 70.098 70.097 70.095-31.399 70.095-70.097-31.397-70.097-70.095-70.097zm0 2.5448c37.324 0 67.553 30.229 67.553 67.552s-30.229 67.554-67.553 67.554-67.555-30.231-67.555-67.554c0-37.324 30.231-67.552 67.555-67.552zm0 1.0603c-36.707 1e-5 -66.495 29.785-66.495 66.492s29.788 66.494 66.495 66.494c36.707 1e-5 66.495-29.788 66.495-66.494s-29.788-66.492-66.495-66.492zm0 2.8408c35.17 0 63.652 28.481 63.652 63.651s-28.481 63.651-63.652 63.651c-35.17-1e-5 -63.652-28.481-63.652-63.651s28.481-63.651 63.652-63.651zm0 0.83944c-34.67 0-62.812 28.142-62.812 62.812s28.142 62.812 62.812 62.812c34.67 1e-5 62.81-28.142 62.81-62.812s-28.14-62.812-62.81-62.812zm0 3.2937c32.891 0 59.521 26.627 59.521 59.518s-26.629 59.518-59.521 59.518c-32.891 0-59.518-26.627-59.518-59.518s26.627-59.518 59.518-59.518zm0 0.49703a59.023 59.022 0 0 0-59.024 59.021 59.023 59.022 0 0 0 59.024 59.023 59.023 59.022 0 0 0 59.021-59.023 59.023 59.022 0 0 0-59.021-59.021z" display="none" fill="#17032b" stop-color="#000000" stroke-linecap="round" stroke-linejoin="round" stroke-miterlimit="0" stroke-width="1.1312"/></g></g></svg>
